<svg width="156" height="80" viewBox="0 0 156 80" fill="none" xmlns="http://www.w3.org/2000/svg">
<g filter="url(#filter0_d_6_1630)">
<path d="M14.9773 56.321V71.2528H6.64204V36.3438H14.7045V49.8778H14.9943C15.5852 48.2642 16.5511 47.0028 17.892 46.0938C19.2443 45.1847 20.8977 44.7301 22.8523 44.7301C24.6932 44.7301 26.2955 45.1392 27.6591 45.9574C29.0227 46.7642 30.0795 47.9063 30.8295 49.3835C31.5909 50.8608 31.9659 52.5881 31.9545 54.5653V71.2528H23.6193V56.2017C23.6307 54.7472 23.267 53.6108 22.5284 52.7926C21.7898 51.9744 20.75 51.5653 19.4091 51.5653C18.5341 51.5653 17.7614 51.7585 17.0909 52.1449C16.4318 52.5199 15.9148 53.0597 15.5398 53.7642C15.1761 54.4688 14.9886 55.321 14.9773 56.321Z" fill="white"/>
<path d="M44.5384 71.696C42.8679 71.696 41.3849 71.4176 40.0895 70.8608C38.8054 70.2926 37.7884 69.4403 37.0384 68.304C36.2997 67.1563 35.9304 65.7188 35.9304 63.9915C35.9304 62.5369 36.1861 61.3097 36.6974 60.3097C37.2088 59.3097 37.9134 58.4972 38.8111 57.8722C39.7088 57.2472 40.7429 56.7756 41.9134 56.4574C43.0838 56.1278 44.3338 55.9063 45.6634 55.7926C47.152 55.6563 48.3509 55.5142 49.2599 55.3665C50.169 55.2074 50.8281 54.9858 51.2372 54.7017C51.6577 54.4063 51.8679 53.9915 51.8679 53.4574V53.3722C51.8679 52.4972 51.5668 51.821 50.9645 51.3438C50.3622 50.8665 49.5497 50.6278 48.527 50.6278C47.4247 50.6278 46.5384 50.8665 45.8679 51.3438C45.1974 51.821 44.7713 52.4801 44.5895 53.321L36.902 53.0483C37.1293 51.4574 37.7145 50.0369 38.6577 48.7869C39.6122 47.5256 40.919 46.5369 42.5781 45.821C44.2486 45.0938 46.2543 44.7301 48.5952 44.7301C50.2656 44.7301 51.8054 44.929 53.2145 45.3267C54.6236 45.7131 55.8509 46.2813 56.8963 47.0313C57.9418 47.7699 58.7486 48.679 59.3168 49.7585C59.8963 50.8381 60.1861 52.071 60.1861 53.4574V71.2528H52.3452V67.6051H52.1406C51.6747 68.4915 51.0781 69.2415 50.3509 69.8551C49.6349 70.4688 48.7884 70.929 47.8111 71.2358C46.8452 71.5426 45.7543 71.696 44.5384 71.696ZM47.1122 66.2415C48.0099 66.2415 48.8168 66.0597 49.5327 65.696C50.2599 65.3324 50.8395 64.8324 51.2713 64.196C51.7031 63.5483 51.919 62.7983 51.919 61.946V59.4574C51.6804 59.5824 51.3906 59.696 51.0497 59.7983C50.7202 59.9006 50.3565 59.9972 49.9588 60.0881C49.5611 60.179 49.152 60.2585 48.7315 60.3267C48.3111 60.3949 47.9077 60.4574 47.5213 60.5142C46.7372 60.6392 46.0668 60.8324 45.5099 61.0938C44.9645 61.3551 44.544 61.696 44.2486 62.1165C43.9645 62.5256 43.8224 63.0142 43.8224 63.5824C43.8224 64.446 44.1293 65.1051 44.7429 65.5597C45.3679 66.0142 46.1577 66.2415 47.1122 66.2415Z" fill="white"/>
<path d="M65.2827 71.2528V36.3438H73.6179V49.554H73.7884C74.1293 48.7585 74.6122 47.9915 75.2372 47.2528C75.8736 46.5142 76.6804 45.9119 77.6577 45.446C78.6463 44.9688 79.8281 44.7301 81.2031 44.7301C83.0213 44.7301 84.7202 45.2074 86.2997 46.1619C87.8906 47.1165 89.1747 48.5881 90.152 50.5767C91.1293 52.5653 91.6179 55.0994 91.6179 58.179C91.6179 61.1449 91.1463 63.6278 90.2031 65.6278C89.2713 67.6278 88.0099 69.1278 86.419 70.1278C84.8395 71.1278 83.0838 71.6278 81.152 71.6278C79.8338 71.6278 78.6918 71.4119 77.7259 70.9801C76.7599 70.5483 75.9474 69.9801 75.2884 69.2756C74.6406 68.571 74.1406 67.8153 73.7884 67.0085H73.5327V71.2528H65.2827ZM73.4474 58.1619C73.4474 59.571 73.6349 60.7983 74.0099 61.8438C74.3963 62.8892 74.9474 63.7017 75.6634 64.2813C76.3906 64.8494 77.2599 65.1335 78.2713 65.1335C79.294 65.1335 80.1634 64.8494 80.8793 64.2813C81.5952 63.7017 82.1349 62.8892 82.4986 61.8438C82.8736 60.7983 83.0611 59.571 83.0611 58.1619C83.0611 56.7528 82.8736 55.5313 82.4986 54.4972C82.1349 53.4631 81.5952 52.6619 80.8793 52.0938C80.1747 51.5256 79.3054 51.2415 78.2713 51.2415C77.2486 51.2415 76.3793 51.5199 75.6634 52.0767C74.9474 52.6335 74.3963 53.429 74.0099 54.4631C73.6349 55.4972 73.4474 56.7301 73.4474 58.1619Z" fill="white"/>
<path d="M95.9858 71.2528V45.071H104.321V71.2528H95.9858ZM100.162 42.0199C98.9915 42.0199 97.9858 41.6335 97.1449 40.8608C96.304 40.0767 95.8835 39.1335 95.8835 38.0313C95.8835 36.9403 96.304 36.0085 97.1449 35.2358C97.9858 34.4517 98.9915 34.0597 100.162 34.0597C101.344 34.0597 102.349 34.4517 103.179 35.2358C104.02 36.0085 104.44 36.9403 104.44 38.0313C104.44 39.1335 104.02 40.0767 103.179 40.8608C102.349 41.6335 101.344 42.0199 100.162 42.0199Z" fill="white"/>
<path d="M124.405 45.071V51.2074H107.888V45.071H124.405ZM111.348 38.7983H119.683V63.0199C119.683 63.5313 119.763 63.946 119.922 64.2642C120.092 64.571 120.337 64.7926 120.655 64.929C120.973 65.054 121.354 65.1165 121.797 65.1165C122.115 65.1165 122.45 65.0881 122.803 65.0313C123.166 64.9631 123.439 64.9063 123.621 64.8608L124.882 70.8778C124.484 70.9915 123.922 71.1335 123.195 71.304C122.479 71.4744 121.621 71.5824 120.621 71.6278C118.666 71.7188 116.99 71.4915 115.592 70.946C114.206 70.3892 113.143 69.5256 112.405 68.3551C111.678 67.1847 111.325 65.7131 111.348 63.9403V38.7983Z" fill="white"/>
<path d="M151.188 53.0653L143.534 53.2699C143.455 52.7244 143.239 52.2415 142.886 51.821C142.534 51.3892 142.074 51.054 141.506 50.8153C140.949 50.5653 140.301 50.4403 139.562 50.4403C138.597 50.4403 137.773 50.6335 137.091 51.0199C136.42 51.4063 136.091 51.929 136.102 52.5881C136.091 53.0994 136.295 53.5426 136.716 53.9176C137.148 54.2926 137.915 54.5938 139.017 54.821L144.062 55.7756C146.676 56.2756 148.619 57.1051 149.892 58.2642C151.176 59.4233 151.824 60.9574 151.835 62.8665C151.824 64.6619 151.29 66.2244 150.233 67.554C149.188 68.8835 147.756 69.9176 145.938 70.6563C144.119 71.3835 142.04 71.7472 139.699 71.7472C135.96 71.7472 133.011 70.9801 130.852 69.446C128.705 67.9006 127.477 65.8324 127.17 63.2415L135.403 63.0369C135.585 63.9915 136.057 64.7188 136.818 65.2188C137.58 65.7188 138.551 65.9688 139.733 65.9688C140.801 65.9688 141.67 65.7699 142.341 65.3722C143.011 64.9744 143.352 64.446 143.364 63.7869C143.352 63.196 143.091 62.7244 142.58 62.3722C142.068 62.0085 141.267 61.7244 140.176 61.5199L135.608 60.6506C132.983 60.1733 131.028 59.2926 129.744 58.0085C128.46 56.7131 127.824 55.0653 127.835 53.0653C127.824 51.3153 128.29 49.821 129.233 48.5824C130.176 47.3324 131.517 46.3778 133.256 45.7188C134.994 45.0597 137.045 44.7301 139.409 44.7301C142.955 44.7301 145.75 45.4744 147.795 46.9631C149.841 48.4403 150.972 50.4744 151.188 53.0653Z" fill="white"/>
</g>
<g filter="url(#filter1_d_6_1630)">
<rect x="4" y="0.252838" width="16" height="16" rx="4" fill="#18181B"/>
<rect x="4.5" y="0.752838" width="15" height="15" rx="3.5" stroke="#27272A"/>
</g>
<rect x="24.5" y="0.752838" width="15" height="15" rx="3.5" fill="#4C1D95" stroke="#6D28D9"/>
<rect x="44.5" y="0.752838" width="15" height="15" rx="3.5" fill="#5B21B6" stroke="#7C3AED"/>
<rect x="64.5" y="0.752838" width="15" height="15" rx="3.5" fill="#6D28D9" stroke="#8B5CF6"/>
<rect x="84.5" y="0.752838" width="15" height="15" rx="3.5" fill="#7C3AED" stroke="#A78BFA"/>
<rect x="104.5" y="0.752838" width="15" height="15" rx="3.5" fill="#8B5CF6" stroke="#C4B5FD"/>
<defs>
<filter id="filter0_d_6_1630" x="2.64204" y="34.0597" width="153.193" height="45.6875" filterUnits="userSpaceOnUse" color-interpolation-filters="sRGB">
<feFlood flood-opacity="0" result="BackgroundImageFix"/>
<feColorMatrix in="SourceAlpha" type="matrix" values="0 0 0 0 0 0 0 0 0 0 0 0 0 0 0 0 0 0 127 0" result="hardAlpha"/>
<feOffset dy="4"/>
<feGaussianBlur stdDeviation="2"/>
<feComposite in2="hardAlpha" operator="out"/>
<feColorMatrix type="matrix" values="0 0 0 0 0 0 0 0 0 0 0 0 0 0 0 0 0 0 0.25 0"/>
<feBlend mode="normal" in2="BackgroundImageFix" result="effect1_dropShadow_6_1630"/>
<feBlend mode="normal" in="SourceGraphic" in2="effect1_dropShadow_6_1630" result="shape"/>
</filter>
<filter id="filter1_d_6_1630" x="0" y="0.252838" width="24" height="24" filterUnits="userSpaceOnUse" color-interpolation-filters="sRGB">
<feFlood flood-opacity="0" result="BackgroundImageFix"/>
<feColorMatrix in="SourceAlpha" type="matrix" values="0 0 0 0 0 0 0 0 0 0 0 0 0 0 0 0 0 0 127 0" result="hardAlpha"/>
<feOffset dy="4"/>
<feGaussianBlur stdDeviation="2"/>
<feComposite in2="hardAlpha" operator="out"/>
<feColorMatrix type="matrix" values="0 0 0 0 0 0 0 0 0 0 0 0 0 0 0 0 0 0 0.25 0"/>
<feBlend mode="normal" in2="BackgroundImageFix" result="effect1_dropShadow_6_1630"/>
<feBlend mode="normal" in="SourceGraphic" in2="effect1_dropShadow_6_1630" result="shape"/>
</filter>
</defs>
</svg>
